<svg width="154" height="68" viewBox="0 0 154 68" fill="none" xmlns="http://www.w3.org/2000/svg">
<path d="M76.8643 0.508789C98.0361 0.508797 117.18 4.28954 131.011 10.3818C137.927 13.4283 143.492 17.0426 147.321 21.0303C151.148 25.0154 153.22 29.3489 153.22 33.8564C153.22 38.3641 151.148 42.6983 147.321 46.6836C143.492 50.6713 137.927 54.2856 131.011 57.332C117.18 63.4243 98.0361 67.2051 76.8643 67.2051C55.6924 67.2051 36.549 63.4243 22.7178 57.332C15.8017 54.2856 10.2364 50.6713 6.40723 46.6836C2.5804 42.6983 0.508789 38.3641 0.508789 33.8564C0.508913 29.3489 2.58052 25.0154 6.40723 21.0303C10.2364 17.0426 15.8016 13.4283 22.7178 10.3818C36.549 4.28953 55.6924 0.508789 76.8643 0.508789Z" fill="white" stroke="black" stroke-width="1.01672"/>
</svg>