<svg width="22" height="237" viewBox="0 0 22 237" fill="none" xmlns="http://www.w3.org/2000/svg">
<path fill-rule="evenodd" clip-rule="evenodd" d="M22.5513 68.3954C16.577 73.3297 4.91504 88.0072 4.91504 108.346C4.91504 128.685 16.577 201.425 22.5513 236.104L22.6248 236.531C22.6002 236.673 22.6492 236.389 22.6248 236.531C22.6004 236.389 22.6494 236.673 22.6248 236.531L22.6983 236.104C28.6727 201.425 40.3346 128.685 40.3346 108.346C40.3346 88.0072 28.6727 73.3297 22.6983 68.3954L22.6248 68.335C22.6004 68.3548 22.6494 68.3148 22.6248 68.335C22.5513 69.3 22.6492 68.3548 22.6248 68.335L22.5513 68.3954Z" fill="white"/>
<path d="M22.6248 68.335C22.6494 68.3148 22.6004 68.3548 22.6248 68.335L22.5513 68.3954C16.577 73.3297 4.91504 88.0072 4.91504 108.346C4.91504 128.685 16.577 201.425 22.5513 236.104L22.6248 236.531M22.6248 236.531C22.6004 236.389 22.6494 236.673 22.6248 236.531C22.6492 236.389 22.6002 236.673 22.6248 236.531ZM22.6248 236.531L22.6983 236.104C28.6727 201.425 40.3346 128.685 40.3346 108.346C40.3346 88.0072 28.6727 73.3297 22.6983 68.3954L22.6248 68.335M22.6248 68.335C22.5513 69.3 22.6492 68.3548 22.6248 68.335Z" stroke="black" stroke-width="1.01672"/>
<path d="M6.53726 43.9691C8.43312 55.096 19.5234 63.4921 22.4758 64.7781C58.7808 42.1982 27.3056 11.584 13.4712 3.30626C20.2154 17.5131 4.16745 30.0606 6.53726 43.9691Z" fill="black"/>
</svg>