<svg width="82" height="51" viewBox="0 0 82 51" fill="none" xmlns="http://www.w3.org/2000/svg">
<mask id="path-1-inside-1_1227_133" fill="white">
<path d="M13.5313 38.6318C5.66744 36.0007 1.90169e-06 28.5753 2.66657e-06 19.8262C4.94002e-05 8.87657 8.87658 1.25911e-06 19.8262 -5.41304e-06L61.9189 -1.73317e-06C72.8683 0.000247179 81.7441 8.87673 81.7441 19.8262C81.7441 30.7757 72.8684 39.6521 61.9189 39.6523L26.4473 39.6523L20.2842 50.3281L13.5313 38.6318Z"/>
</mask>
<path d="M13.5313 38.6318C5.66744 36.0007 1.90169e-06 28.5753 2.66657e-06 19.8262C4.94002e-05 8.87657 8.87658 1.25911e-06 19.8262 -5.41304e-06L61.9189 -1.73317e-06C72.8683 0.000247179 81.7441 8.87673 81.7441 19.8262C81.7441 30.7757 72.8684 39.6521 61.9189 39.6523L26.4473 39.6523L20.2842 50.3281L13.5313 38.6318Z" fill="white"/>
<path d="M13.5313 38.6318L14.4118 38.1235L14.2192 37.7899L13.8539 37.6676L13.5313 38.6318ZM2.66657e-06 19.8262L-1.01672 19.8262L-1.01672 19.8262L2.66657e-06 19.8262ZM19.8262 -5.41304e-06L19.8262 -1.01673V-1.01673L19.8262 -5.41304e-06ZM61.9189 -1.73317e-06L61.919 -1.01673L61.9189 -1.01673L61.9189 -1.73317e-06ZM81.7441 19.8262L82.7609 19.8262L82.7609 19.8262L81.7441 19.8262ZM61.9189 39.6523L61.9189 40.6691L61.919 40.6691L61.9189 39.6523ZM26.4473 39.6523L26.4473 38.6356L25.8602 38.6356L25.5667 39.144L26.4473 39.6523ZM20.2842 50.3281L19.4037 50.8365L20.2842 52.3616L21.1647 50.8364L20.2842 50.3281ZM13.5313 38.6318L13.8539 37.6676C6.39214 35.171 1.01673 28.1251 1.01673 19.8262L2.66657e-06 19.8262L-1.01672 19.8262C-1.01672 29.0256 4.94275 36.8303 13.2086 39.596L13.5313 38.6318ZM2.66657e-06 19.8262L1.01673 19.8262C1.01677 9.43809 9.4381 1.01672 19.8262 1.01672L19.8262 -5.41304e-06L19.8262 -1.01673C8.31505 -1.01672 -1.01667 8.31505 -1.01672 19.8262L2.66657e-06 19.8262ZM19.8262 -5.41304e-06L19.8262 1.01672L61.9189 1.01672L61.9189 -1.73317e-06L61.9189 -1.01673L19.8262 -1.01673L19.8262 -5.41304e-06ZM61.9189 -1.73317e-06L61.9189 1.01672C72.3068 1.01696 80.7274 9.4382 80.7274 19.8262L81.7441 19.8262L82.7609 19.8262C82.7608 8.31525 73.4299 -1.01646 61.919 -1.01673L61.9189 -1.73317e-06ZM81.7441 19.8262L80.7274 19.8262C80.7274 30.2142 72.3068 38.6354 61.9189 38.6356L61.9189 39.6523L61.919 40.6691C73.4299 40.6688 82.7609 31.3371 82.7609 19.8262L81.7441 19.8262ZM61.9189 39.6523L61.9189 38.6356L26.4473 38.6356L26.4473 39.6523L26.4473 40.6691L61.9189 40.6691L61.9189 39.6523ZM26.4473 39.6523L25.5667 39.144L19.4037 49.8198L20.2842 50.3281L21.1647 50.8364L27.3278 40.1607L26.4473 39.6523ZM20.2842 50.3281L21.1647 49.8198L14.4118 38.1235L13.5313 38.6318L12.6507 39.1402L19.4037 50.8365L20.2842 50.3281Z" fill="black" mask="url(#path-1-inside-1_1227_133)"/>
<ellipse cx="18.6052" cy="20.4373" rx="7.01538" ry="7.01538" fill="black"/>
<ellipse cx="40.5671" cy="20.4373" rx="7.01538" ry="7.01538" fill="black"/>
<ellipse cx="62.5291" cy="20.4373" rx="7.01538" ry="7.01538" fill="black"/>
</svg>