<svg width="53" height="53" viewBox="0 0 53 53" fill="none" xmlns="http://www.w3.org/2000/svg">
<path d="M49.7819 26.4157C48.4382 26.6689 46.7458 27.025 44.9344 27.5012C42.8156 28.0582 40.5238 28.7795 38.4309 29.6916C36.344 30.601 34.4207 31.7144 33.0675 33.0676C31.7144 34.4208 30.6016 36.3436 29.6922 38.4303C28.7801 40.5234 28.0582 42.8155 27.5011 44.9344C27.0252 46.7447 26.6702 48.4359 26.417 49.7792C26.1638 48.4359 25.8087 46.7447 25.3329 44.9344C24.7758 42.8155 24.0539 40.5234 23.1418 38.4303C22.2324 36.3436 21.1195 34.4208 19.7665 33.0676C18.4132 31.7144 16.49 30.601 14.4031 29.6916C12.3101 28.7795 10.0184 28.0582 7.89963 27.5012C6.08822 27.025 4.3958 26.6689 3.05208 26.4157C4.39565 26.1625 6.08782 25.8084 7.89894 25.3322C10.0178 24.7752 12.31 24.0533 14.4031 23.1412C16.4898 22.2318 18.4126 21.1189 19.7658 19.7658C21.119 18.4126 22.2324 16.4893 23.1418 14.4025C24.0538 12.3095 24.7751 10.0178 25.3322 7.89902C25.8084 6.08732 26.1637 4.3946 26.417 3.05078C26.6702 4.3946 27.0255 6.08732 27.5018 7.89902C28.0588 10.0178 28.7801 12.3095 29.6922 14.4025C30.6016 16.4893 31.715 18.4126 33.0682 19.7658C34.4214 21.1189 36.3442 22.2318 38.4309 23.1412C40.524 24.0533 42.8161 24.7752 44.935 25.3322C46.7462 25.8084 48.4383 26.1625 49.7819 26.4157Z" stroke="black"/>
</svg>